Coordinates
version=1
nRows=19
nColumns=24
inDegrees=yes

Units are S.I. units (second, meters, Newtons, ...)
Angles are in degrees.

endheader
time	pelvis_tilt	pelvis_list	pelvis_rotation	pelvis_tx	pelvis_ty	pelvis_tz	hip_flexion_r	hip_adduction_r	hip_rotation_r	knee_angle_r	ankle_angle_r	subtalar_angle_r	mtp_angle_r	hip_flexion_l	hip_adduction_l	hip_rotation_l	knee_angle_l	ankle_angle_l	subtalar_angle_l	mtp_angle_l	lumbar_extension	lumbar_bending	lumbar_rotation
      4.80000000	     -9.59637400	      5.32177722	      2.42969730	     -1.47754914	     -0.00612709	     -0.31735448	     26.77643702	    -10.98462215	    -10.63477652	    -63.59875114	    -14.12850421	      4.52674224	     37.34616956	     12.45852734	     10.97108434	     16.00618066	    -13.35829702	      1.65664730	     -9.71406958	      0.36985563	      8.39289762	     -8.33303319	      1.70548464
      4.80500000	     -9.46259174	      5.11323969	      2.57904301	     -1.47290173	     -0.00566037	     -0.31764801	     27.28494182	    -10.80766685	    -10.79151908	    -63.18223312	    -13.46552348	      4.66042561	     37.57221199	     11.83874628	     10.74351069	     16.23016599	    -13.07379328	      1.84775087	     -9.66006599	      0.42117164	      8.14746362	     -8.12883412	      1.33593960
      4.81000000	     -9.31856867	      4.91168293	      2.71630390	     -1.46825968	     -0.00522265	     -0.31789892	     27.76772712	    -10.62414284	    -10.92864158	    -62.70320589	    -12.81315536	      4.78354512	     37.74397593	     11.20892330	     10.51032419	     16.43248659	    -12.78311394	      2.03351118	     -9.59140097	      0.51226394	      7.89762341	     -7.93055123	      0.97981519
      4.81500000	     -9.11952309	      4.73543953	      2.86421187	     -1.46365911	     -0.00476781	     -0.31815103	     28.16840017	    -10.46540347	    -11.06518109	    -62.16262253	    -12.13776663	      4.89927225	     37.83620237	     10.52341231	     10.29727281	     16.61783806	    -12.48870853	      2.18096836	     -9.50448065	      0.66720501	      7.57484498	     -7.75486961	      0.61848122
      4.82000000	     -8.97271884	      4.54310321	      2.98169874	     -1.45904649	     -0.00439575	     -0.31833443	     28.61973172	    -10.25889712	    -11.14829898	    -61.56180600	    -11.53251155	      5.00637488	     37.85712018	      9.89613785	     10.05465196	     16.77640887	    -12.18719015	      2.33656333	     -9.42905134	      0.84263058	      7.32533963	     -7.56072364	      0.27824574
      4.82500000	     -8.90367997	      4.37020673	      3.05389321	     -1.45447763	     -0.00418224	     -0.31841987	     29.16415820	    -10.03743732	    -11.16581608	    -60.91456290	    -10.97941069	      5.00855487	     37.88344500	      9.37062494	      9.82644776	     16.93230453	    -11.91604756	      2.50956938	     -9.38245208	      0.96502055	      7.16582265	     -7.38194440	      0.07145808
      4.83000000	     -8.63155104	      4.20839465	      3.22267365	     -1.44988878	     -0.00378774	     -0.31863913	     29.41780022	     -9.88579710	    -11.29551212	    -60.19976821	    -10.33076845	      5.16964675	     37.71921612	      8.61315922	      9.61381363	     17.09725782	    -11.61989146	      2.65725042	     -9.30312080	      1.24443336	      6.76491045	     -7.22139603	     -0.34302133
      4.83500000	     -8.47379222	      4.04140740	      3.33783039	     -1.44528361	     -0.00352134	     -0.31873747	     29.79687934	     -9.67975100	    -11.33410308	    -59.42535078	     -9.78146505	      5.26830978	     37.49722621	      7.98477869	      9.38562969	     17.25188339	    -11.32743579	      2.76152600	     -9.28409836	      1.46186538	      6.51016734	     -7.05371991	     -0.65321157
      4.84000000	     -8.42812157	      3.90052408	      3.40570157	     -1.44076090	     -0.00347869	     -0.31877049	     30.31718187	     -9.46678625	    -11.27942954	    -58.61639068	     -9.32342089	      5.27305801	     37.41904288	      7.50765458	      9.19188813	     17.40305437	    -11.09238250	      2.93113096	     -9.29425229	      1.56762825	      6.37551905	     -6.90331032	     -0.85678215
      4.84500000	     -8.17917166	      3.75363185	      3.59578271	     -1.43613433	     -0.00318576	     -0.31889516	     30.51869950	     -9.31883520	    -11.39095762	    -57.71867090	     -8.77348835	      5.42722964	     37.06729383	      6.78402704	      8.98868625	     17.62587020	    -10.81863039	      3.04061712	     -9.29945991	      1.73234841	      6.01635039	     -6.77463396	     -1.25205515
      4.85000000	     -7.99664588	      3.62254421	      3.72263769	     -1.43160832	     -0.00304737	     -0.31893556	     30.81095289	     -9.13725732	    -11.39504969	    -56.79544040	     -8.23369289	      5.53220309	     36.58095881	      6.15992863	      8.80394834	     17.85038703	    -10.59031406	      3.14180819	     -9.41327324	      1.83515011	      5.71850332	     -6.64248948	     -1.55764161
      4.85500000	     -7.87660506	      3.49965845	      3.86202986	     -1.42706207	     -0.00299879	     -0.31896101	     31.14893237	     -8.96671284	    -11.37870350	    -55.81974860	     -7.76117226	      5.66187092	     36.12626294	      5.61112658	      8.63264313	     18.09542397	    -10.38439692	      3.26557281	     -9.51492574	      1.85886749	      5.49957465	     -6.52789540	     -1.85811499
      4.86000000	     -7.75854227	      3.37646742	      4.00979402	     -1.42253612	     -0.00297744	     -0.31897109	     31.46152161	     -8.79461479	    -11.35394885	    -54.78336371	     -7.32567242	      5.79398589	     35.66906102	      5.07568604	      8.46288533	     18.36231903	    -10.20220809	      3.40152202	     -9.63381206	      1.80446176	      5.27712496	     -6.41321583	     -2.15840457
      4.86500000	     -7.65014620	      3.24962637	      4.16803871	     -1.41800428	     -0.00299226	     -0.31896531	     31.75583486	     -8.62241204	    -11.32940255	    -53.69332996	     -6.91516064	      5.94921172	     35.17699458	      4.55592565	      8.29021601	     18.65732693	    -10.03461993	      3.55232123	     -9.77634869	      1.67648073	      5.06384101	     -6.30278236	     -2.46546706
      4.87000000	     -7.52290387	      3.13403018	      4.33070026	     -1.41355901	     -0.00301297	     -0.31895011	     32.01611540	     -8.45306511	    -11.26214874	    -52.57234750	     -6.52307977	      6.16863556	     34.49718469	      4.03653678	      8.13525326	     18.99982165	     -9.90981168	      3.71410920	     -9.96952376	      1.40934835	      4.80759614	     -6.19794464	     -2.82330189
      4.87500000	     -7.56308839	      3.00991573	      4.43434422	     -1.40904582	     -0.00324113	     -0.31885551	     32.44494390	     -8.24298230	    -11.09791860	    -51.36861527	     -6.31116363	      6.30919980	     34.29723577	      3.72352880	      7.97480757	     19.16226498	     -9.81679012	      3.88700356	    -10.05590878	      1.36049328	      4.77002807	     -6.08462359	     -3.03136100
      4.88000000	     -7.53246576	      2.84164604	      4.60777397	     -1.40454198	     -0.00337841	     -0.31883166	     32.73549899	     -8.02981720	    -11.02813486	    -50.09339792	     -6.09677820	      6.50129631	     33.94600915	      3.33811198	      7.76811388	     19.45746662	     -9.73749339	      4.07217122	    -10.17959814	      1.24389562	      4.64326070	     -5.92847990	     -3.33674287
      4.88500000	     -7.33176422	      2.76481358	      4.76783748	     -1.39999110	     -0.00340197	     -0.31880405	     32.83155641	     -7.91082150	    -10.97069348	    -48.89487682	     -5.47319151	      6.92578756	     32.44333500	      2.70336997	      7.64868392	     19.96117770	     -9.59540663	      4.29371168	    -10.53605861	      0.34846803	      4.32216462	     -5.85726426	     -3.65948509
      4.89000000	     -7.35903958	      2.59885146	      5.00070546	     -1.39556585	     -0.00364318	     -0.31880818	     33.13157760	     -7.73933186	    -10.92695854	    -47.53934032	     -5.34468425	      7.08201620	     32.04802078	      2.42133122	      7.45265278	     20.27424216	     -9.58991280	      4.56623445	    -10.52443183	      0.21063963	      4.23838604	     -5.71879117	     -4.04202553
